<svg width="20" height="20" viewBox="0 0 20 20" fill="none" xmlns="http://www.w3.org/2000/svg">
<path d="M5.5 0.375H13.5C13.5606 0.375 13.6183 0.399532 13.6611 0.442383L19.0576 5.83887C19.1005 5.88173 19.125 5.93939 19.125 6V18C19.125 18.8975 18.3975 19.625 17.5 19.625H5.5C4.60254 19.625 3.875 18.8975 3.875 18V2C3.875 1.10254 4.60254 0.375 5.5 0.375Z" fill="white" stroke="#DCDCDC" stroke-width="0.75"/>
<path d="M13.5 0.25V4C13.5 5.10457 14.3954 6 15.5 6H19.25" stroke="#DCDCDC" stroke-width="0.75"/>
<rect x="1.5" y="9" width="13" height="8" rx="1" fill="#161616"/>
<path d="M3.41615 15V11.3636H4.85081C5.12661 11.3636 5.36158 11.4163 5.55571 11.5217C5.74984 11.6258 5.8978 11.7708 5.9996 11.9567C6.10258 12.1413 6.15408 12.3544 6.15408 12.5959C6.15408 12.8374 6.10199 13.0504 5.99783 13.2351C5.89366 13.4197 5.74274 13.5636 5.54506 13.6665C5.34856 13.7695 5.11063 13.821 4.83128 13.821H3.91686V13.2049H4.70699C4.85495 13.2049 4.97687 13.1795 5.07275 13.1286C5.16982 13.0765 5.24202 13.0049 5.28937 12.9137C5.33791 12.8214 5.36217 12.7154 5.36217 12.5959C5.36217 12.4751 5.33791 12.3698 5.28937 12.2798C5.24202 12.1887 5.16982 12.1183 5.07275 12.0685C4.97569 12.0176 4.85258 11.9922 4.70344 11.9922H4.18497V15H3.41615ZM7.94252 15H6.65345V11.3636H7.95317C8.31894 11.3636 8.6338 11.4364 8.89777 11.582C9.16174 11.7264 9.36475 11.9342 9.50679 12.2053C9.65002 12.4763 9.72164 12.8007 9.72164 13.1783C9.72164 13.5571 9.65002 13.8826 9.50679 14.1548C9.36475 14.4271 9.16056 14.636 8.89422 14.7816C8.62907 14.9272 8.31183 15 7.94252 15ZM7.42227 14.3413H7.91056C8.13783 14.3413 8.329 14.301 8.48406 14.2205C8.64031 14.1388 8.7575 14.0128 8.83563 13.8423C8.91494 13.6707 8.95459 13.4493 8.95459 13.1783C8.95459 12.9096 8.91494 12.69 8.83563 12.5195C8.7575 12.3491 8.64091 12.2236 8.48584 12.1431C8.33077 12.0626 8.1396 12.0224 7.91233 12.0224H7.42227V14.3413ZM10.2911 15V11.3636H12.6988V11.9975H11.06V12.864H12.539V13.4979H11.06V15H10.2911Z" fill="white"/>
</svg>
